<?xml version="1.0" encoding="utf-8"?>
<!-- Generator: Adobe Illustrator 28.0.0, SVG Export Plug-In . SVG Version: 6.00 Build 0)  -->
<svg version="1.1" id="Capa_1" xmlns="http://www.w3.org/2000/svg" xmlns:xlink="http://www.w3.org/1999/xlink" x="0px" y="0px"
	 viewBox="0 0 800 800" style="enable-background:new 0 0 800 800;" xml:space="preserve">
<style type="text/css">
	.st0{fill:#FFFFFF;}
</style>
<path id="XMLID_405_" class="st0" d="M397.4,760.2c0,7.1-5.8,12.9-12.9,12.9H227.7c-22.4,0-40.6-18.2-40.6-40.6V339.9
	c0-61.5,37.2-117,93.4-140.9V71.1c-4.8-4.5-7.7-10.9-7.7-17.7v-29c0-10.3,6.6-19.6,16.4-23c2.6-0.9,5.3-1.3,8-1.3h86
	c2.7,0,5.4,0.5,8,1.3c9.8,3.4,16.4,12.7,16.4,23v29c0,6.9-2.9,13.2-7.7,17.7V199c31.2,13.3,57.2,36.6,73.9,66.3
	c3.5,6.2,1.3,14.1-4.9,17.6c-6.2,3.5-14.1,1.3-17.6-4.9c-15.2-27-39.6-47.6-68.6-58c-5.2-1.8-8.6-6.7-8.6-12.2V77.7H371
	c-7.1,0-12.9-5.8-12.9-12.9s5.8-12.9,12.9-12.9h10.6v-26h-82.9v26h10.6c7.1,0,12.9,5.8,12.9,12.9s-5.8,12.9-12.9,12.9h-2.9v130.1
	c0,5.5-3.4,10.4-8.6,12.2C247,238.1,213,286.3,213,339.9v392.7c0,8.1,6.6,14.7,14.7,14.7h156.7C391.6,747.3,397.4,753.1,397.4,760.2
	z M287,261.1c-27.8,15.9-45.1,45.5-45.1,77.4v352.1c0,7.1,5.8,12.9,12.9,12.9s12.9-5.8,12.9-12.9V338.5c0-22.6,12.3-43.6,32.1-54.9
	c6.2-3.5,8.4-11.4,4.8-17.7C301.1,259.7,293.2,257.6,287,261.1z M551.9,491.8c-7.1,0.8-12.2,7.3-11.3,14.4
	c1.4,11.7-2.6,23.4-11.1,33c-10.6,12-26.6,19.1-42.7,19.1c-7.1,0-12.9,5.8-12.9,12.9s5.8,12.9,12.9,12.9c23.4,0,46.6-10.4,62-27.8
	c13.5-15.2,19.7-34.2,17.5-53.3C565.4,496,559,490.9,551.9,491.8z M584.9,591.5c-21.6,24.3-52.7,40-85.2,43.4v139.3h41.2
	c7.1,0,12.9,5.8,12.9,12.9s-5.8,12.9-12.9,12.9H487c-0.1,0-0.1,0-0.2,0s-0.1,0-0.2,0h-53.9c-7.1,0-12.9-5.8-12.9-12.9
	s5.8-12.9,12.9-12.9h41.2V634.8c-32.5-3.3-63.6-19-85.2-43.4c-21.2-23.8-30.8-53.3-27.3-83l9.4-79c0-0.2,0-0.3,0.1-0.5l10.7-89.3
	c0.8-6.5,6.3-11.4,12.9-11.4h184.8c6.6,0,12.1,4.9,12.9,11.4l20.2,168.9C615.8,538.1,606.1,567.6,584.9,591.5z M586.5,511.5
	L567.7,354H405.8l-8.4,70.3c34.8,21.1,92.9,19.9,141.7-3.5c6.4-3.1,14.2-0.4,17.3,6.1c3.1,6.4,0.4,14.2-6.1,17.3
	c-52.8,25.4-113.7,27.8-156.2,7.7l-7.1,59.6c-2.7,22.3,4.8,44.6,21,62.8c19.6,22.1,49.1,35.3,78.8,35.3c29.7,0,59.2-13.2,78.8-35.3
	C581.7,556.1,589.2,533.8,586.5,511.5z"/>
</svg>
